<?xml version="1.0" encoding="utf-8"?>
<!-- Generator: Adobe Illustrator 16.0.0, SVG Export Plug-In . SVG Version: 6.00 Build 0)  -->
<!DOCTYPE svg PUBLIC "-//W3C//DTD SVG 1.1//EN" "http://www.w3.org/Graphics/SVG/1.1/DTD/svg11.dtd">
<svg version="1.1" id="Layer_1" xmlns="http://www.w3.org/2000/svg" xmlns:xlink="http://www.w3.org/1999/xlink" x="0px" y="0px"
	 width="206.989px" height="223.489px" viewBox="0 0 206.989 223.489" enable-background="new 0 0 206.989 223.489"
	 xml:space="preserve">
<g>
	<path fill="#F8F9FA" d="M85.729,125.097c5.761,0.559,11.477,1.682,17.245,2.061c23.356,1.533,44.131-17.648,45.088-41.046
		c0.52-12.727-2.926-23.926-12.254-34.644c3.771-2.794,7.371-5.462,11.088-8.216c-4.76-4.748-8.508-8.485-12.439-12.405
		c-3.748,3.892-7.405,7.688-10.865,11.282c-20.638-6.597-39.486-5.43-53.575,11.976c-15.327,18.935-13.35,38.892-0.385,58.009
		c-2.841,3.203-5.743,5.602-7.542,8.651c-7.762,13.161,2.708,30.768,18.505,31.069c13.483,0.258,26.975,0.046,40.463,0.067
		c3.591,0.006,7.081,0.684,6.884,5.218c-0.174,4.015-3.261,4.862-6.805,4.824c-7.658-0.082-15.318-0.021-22.979-0.021
		c-11.269,0.001-22.539,0-33.881,0c0,5.94,0,11.317,0,16.96c20.16,0,39.959,0.069,59.759-0.023
		c13.478-0.063,23.052-9.173,23.011-21.624c-0.042-13.147-9.614-22.282-23.436-22.313c-12.658-0.027-25.316-0.054-37.973,0.023
		c-3.544,0.021-6.77-0.787-6.883-4.748C78.632,125.868,82.042,124.738,85.729,125.097z M78.564,83.409
		C78.424,67.623,89.17,55.608,103.5,55.528c14.686-0.081,25.721,11.504,25.769,27.051c0.05,16.146-10.506,27.441-25.699,27.505
		C89.488,110.144,78.699,98.634,78.564,83.409z"/>
</g>
</svg>
