<?xml version="1.0" encoding="utf-8"?>
<!-- Generator: Adobe Illustrator 16.0.0, SVG Export Plug-In . SVG Version: 6.00 Build 0)  -->
<!DOCTYPE svg PUBLIC "-//W3C//DTD SVG 1.1//EN" "http://www.w3.org/Graphics/SVG/1.1/DTD/svg11.dtd">
<svg version="1.1" id="Layer_1" xmlns="http://www.w3.org/2000/svg" xmlns:xlink="http://www.w3.org/1999/xlink" x="0px" y="0px"
	 width="190px" height="206px" viewBox="302.5 201.5 190 206" enable-background="new 302.5 201.5 190 206" xml:space="preserve">
<g>
	<path fill="#212529" d="M372.825,322.192c5.761,0.559,11.477,1.682,17.245,2.061c23.356,1.533,44.131-17.647,45.088-41.046
		c0.52-12.727-2.926-23.926-12.254-34.644c3.771-2.794,7.371-5.462,11.088-8.216c-4.76-4.748-8.508-8.485-12.439-12.405
		c-3.748,3.892-7.404,7.688-10.864,11.282c-20.639-6.597-39.486-5.43-53.575,11.976c-15.327,18.935-13.35,38.892-0.385,58.009
		c-2.841,3.203-5.743,5.602-7.542,8.651c-7.762,13.161,2.708,30.768,18.505,31.068c13.483,0.258,26.975,0.046,40.463,0.067
		c3.591,0.006,7.081,0.684,6.884,5.218c-0.174,4.015-3.261,4.862-6.805,4.824c-7.658-0.082-15.318-0.021-22.979-0.021
		c-11.269,0.001-22.539,0-33.881,0c0,5.94,0,11.317,0,16.96c20.16,0,39.959,0.069,59.759-0.022
		c13.479-0.063,23.052-9.173,23.011-21.624c-0.042-13.147-9.613-22.282-23.436-22.313c-12.658-0.026-25.316-0.054-37.973,0.023
		c-3.544,0.021-6.77-0.787-6.883-4.748C365.728,322.964,369.137,321.834,372.825,322.192z M365.66,280.505
		c-0.14-15.786,10.606-27.801,24.936-27.881c14.686-0.081,25.721,11.504,25.769,27.051c0.05,16.146-10.506,27.441-25.699,27.505
		C376.584,307.239,365.795,295.729,365.66,280.505z"/>
</g>
</svg>
